<?xml version="1.0" encoding="UTF-8"?>
<svg width="36px" height="36px" viewBox="0 0 36 36" version="1.1" xmlns="http://www.w3.org/2000/svg" xmlns:xlink="http://www.w3.org/1999/xlink">
    <!-- Generator: sketchtool 51.1 (57501) - http://www.bohemiancoding.com/sketch -->
    <title>F47FBC7A-77E6-410F-B8C6-339EA9E5F799</title>
    <desc>Created with sketchtool.</desc>
    <defs>
        <linearGradient x1="50%" y1="0%" x2="50%" y2="100%" id="linearGradient-1">
            <stop stop-color="#06D506" offset="0%"></stop>
            <stop stop-color="#04B707" offset="100%"></stop>
        </linearGradient>
    </defs>
    <g id="Page-1" stroke="none" stroke-width="1" fill="none" fill-rule="evenodd">
        <g id="Updated-share-popup" transform="translate(-44.000000, -451.000000)">
            <g id="ProfilePic-+-WeChat-Icon" transform="translate(44.000000, 451.000000)">
                <rect id="ProfilePic" fill="url(#linearGradient-1)" x="0" y="0" width="36" height="36" rx="18"></rect>
                <g id="WeChat-Icon" transform="translate(3.910938, 6.400000)" fill="#FFFFFF">
                    <path d="M6.2237876,0.689373358 C4.19517928,1.42035816 2.35715557,2.77832084 1.22255198,4.62818505 C0.193565604,6.29580036 -0.267482424,7.70682836 0.230102536,9.61513725 C0.727971668,11.7336386 2.22705118,13.5447509 4.01496592,14.7308843 C3.67841169,15.7084356 3.56679697,16.5491949 3.44631357,17.6023443 C4.80656748,17.0769048 5.32385826,16.6923279 6.44946308,16.0950933 C7.80761521,16.5294974 9.63865881,16.7341282 11.0641597,16.6882818 C9.54606943,9.4912109 15.6502925,7.19495846 20.0890632,7.30921627 C19.4673102,4.62818514 17.9237122,2.63159343 15.7594592,1.43380896 C12.8896074,-0.182465967 9.31245176,-0.426095991 6.2237876,0.689373358 Z M8.10112328,5.85409521 C7.91306737,6.75906409 6.69948707,7.19563199 5.99068841,6.58884184 C5.16998356,6.00978303 5.39941354,4.571677 6.36528436,4.28286094 C7.31046813,3.91789516 8.38557009,4.87850505 8.10112328,5.85409521 L8.10112328,5.85409521 Z M14.9445612,5.58475489 C14.95259,6.62792491 13.5642311,7.27805388 12.7831175,6.56963379 C11.9731002,5.99011472 12.202724,4.57782713 13.1538699,4.2843184 C14.004388,3.94974701 15.0103974,4.66754011 14.9445612,5.58475489 L14.9445612,5.58475489 Z" id="path11-1"></path>
                    <path d="M24.033594,8.90014647 C21.3819704,7.63085938 17.9050173,7.54252928 15.071167,8.90014648 C13.1965713,9.79821202 11.9398249,11.2844661 11.5013428,13.3488037 C11.1404862,14.8676215 11.5132698,16.5524358 12.3182861,17.8780273 C13.518504,19.8671593 15.0903855,20.956436 17.3449709,21.3645752 C18.9778071,21.6962989 21.0222488,21.5240871 22.5275149,21.0674316 C23.4766131,21.4377819 24.5212602,22.235053 25.4423425,22.6763274 C25.206022,21.8800603 24.9538785,21.0869578 24.680979,20.3019529 C25.7124497,19.5651615 26.6528919,18.6507807 27.218423,17.4995209 C28.0592736,15.8967483 28.1096279,13.9119909 27.3683688,12.2632387 C26.6800702,10.7042119 25.5601974,9.63090554 24.033594,8.90014647 Z M17.9031255,12.7812448 C17.65132,13.5759015 16.4929144,13.815724 15.936334,13.2090906 C15.3206646,12.6505421 15.5601306,11.4789354 16.3668111,11.2301785 C17.263981,10.8521243 18.2961828,11.8849973 17.9031255,12.7812448 L17.9031255,12.7812448 Z M23.5563487,12.8908367 C23.2577772,13.6087227 22.214292,13.7740168 21.699244,13.218806 C21.449734,12.9872331 21.3890424,12.6362979 21.2890625,12.3255531 C21.4224668,11.7666153 21.7843686,11.1845102 22.4005693,11.1593283 C23.2533793,11.0391602 24.0015183,12.1054632 23.5563487,12.8908367 L23.5563487,12.8908367 Z" id="path13-81"></path>
                </g>
            </g>
        </g>
    </g>
</svg>