<?xml version="1.0" encoding="UTF-8"?>
<svg width="27px" height="31px" viewBox="0 0 27 31" version="1.1" xmlns="http://www.w3.org/2000/svg" xmlns:xlink="http://www.w3.org/1999/xlink">
    <!-- Generator: sketchtool 51.1 (57501) - http://www.bohemiancoding.com/sketch -->
    <title>9222DA24-6EF1-49B0-9E55-DE17329D50ED</title>
    <desc>Created with sketchtool.</desc>
    <defs></defs>
    <g id="Page-1" stroke="none" stroke-width="1" fill="none" fill-rule="evenodd">
        <g id="Updated-share-popup" transform="translate(-52.000000, -381.000000)" fill="#24DAC6" fill-rule="nonzero">
            <g id="sms-icon" transform="translate(52.000000, 381.000000)">
                <path d="M9.11306598,8.19430789 L9.11306598,15.3989651 C9.11306598,16.8636481 10.3006468,18.090815 11.8049159,18.090815 L12.5966365,18.090815 L12.5966365,20.7826649 C12.5966365,21.0993532 12.7549806,21.3368693 13.0320828,21.4556274 C13.1112549,21.4952135 13.2300129,21.5347995 13.309185,21.5347995 C13.5071151,21.5347995 13.6654592,21.4556274 13.8238034,21.3368693 L17.1886158,18.090815 L23.5619664,18.090815 C25.0266494,18.090815 26.2538163,16.9032342 26.2538163,15.3989651 L26.2538163,8.19430789 C26.2538163,6.72962484 25.0662354,5.50245796 23.5619664,5.50245796 L11.7653299,5.50245796 C10.3402329,5.54204398 9.11306598,6.72962484 9.11306598,8.19430789 Z M24.8287193,8.19430789 L24.8287193,15.3989651 C24.8287193,16.0719276 24.2745149,16.5865459 23.6411384,16.5865459 L16.9510996,16.5865459 C16.7531695,16.5865459 16.5948254,16.665718 16.4364812,16.7844761 L14.1009056,19.0408797 L14.1009056,17.3386805 C14.1009056,16.9428202 13.7842173,16.5865459 13.348771,16.5865459 L11.8445019,16.5865459 C11.1715395,16.5865459 10.6569211,16.0323415 10.6569211,15.3989651 L10.6569211,8.19430789 C10.6569211,7.52134541 11.2111255,7.00672704 11.8445019,7.00672704 L23.6411384,7.00672704 C24.2745149,7.00672704 24.8287193,7.56093144 24.8287193,8.19430789 Z M12.3987063,10.2131953 C12.3987063,9.81733506 12.7153946,9.4610608 13.1508409,9.4610608 L21.9389392,9.4610608 C22.3347995,9.4610608 22.6910737,9.77774903 22.6910737,10.2131953 C22.6910737,10.6090556 22.3743855,10.9653299 21.9389392,10.9653299 L13.1508409,10.9653299 C12.7549806,10.9257439 12.3987063,10.6090556 12.3987063,10.2131953 Z M12.3987063,13.5384217 C12.3987063,13.1425614 12.7153946,12.7862872 13.1508409,12.7862872 L21.9389392,12.7862872 C22.3347995,12.7862872 22.6910737,13.1029754 22.6910737,13.5384217 C22.6910737,13.934282 22.3743855,14.2905563 21.9389392,14.2905563 L13.1508409,14.2905563 C12.7549806,14.2905563 12.3987063,13.934282 12.3987063,13.5384217 Z M0.8,28.2248383 L0.8,2.37516171 C0.8,1.06882277 1.86882277,0 3.17516171,0 L17.54489,0 C18.851229,0 19.9200517,1.06882277 19.9200517,2.37516171 L19.9200517,3.64191462 C19.9200517,4.0377749 19.6033635,4.39404916 19.1679172,4.39404916 C18.7720569,4.39404916 18.4157827,4.07736093 18.4157827,3.64191462 L18.4157827,2.37516171 C18.4157827,1.90012937 18.0199224,1.50426908 17.54489,1.50426908 L3.17516171,1.50426908 C2.70012937,1.50426908 2.30426908,1.90012937 2.30426908,2.37516171 L2.30426908,28.2248383 C2.30426908,28.6998706 2.70012937,29.0957309 3.17516171,29.0957309 L17.54489,29.0957309 C18.0199224,29.0957309 18.4157827,28.6998706 18.4157827,28.2248383 L18.4157827,20.0305304 C18.4157827,19.6346701 18.7324709,19.2783959 19.1679172,19.2783959 C19.5637775,19.2783959 19.9200517,19.5950841 19.9200517,20.0305304 L19.9200517,28.2248383 C19.9200517,29.5311772 18.851229,30.6 17.54489,30.6 L3.17516171,30.6 C1.86882277,30.6 0.8,29.5311772 0.8,28.2248383 Z M12.9133247,26.2059508 C12.9133247,26.6018111 12.5966365,26.9580854 12.1611902,26.9580854 L8.47968952,26.9580854 C8.08382924,26.9580854 7.72755498,26.6413972 7.72755498,26.2059508 C7.72755498,25.8100906 8.04424321,25.4538163 8.47968952,25.4538163 L12.1611902,25.4538163 C12.5966365,25.4538163 12.9133247,25.7705045 12.9133247,26.2059508 Z" id="Shape"></path>
            </g>
        </g>
    </g>
</svg>