<?xml version="1.0" encoding="UTF-8"?>
<svg width="26px" height="32px" viewBox="0 0 26 32" version="1.1" xmlns="http://www.w3.org/2000/svg" xmlns:xlink="http://www.w3.org/1999/xlink">
    <!-- Generator: sketchtool 49.3 (51167) - http://www.bohemiancoding.com/sketch -->
    <title>E7BB8207-7DFF-4BD0-A407-2EA59C443CCC</title>
    <desc>Created with sketchtool.</desc>
    <defs>
        <linearGradient x1="-377.030263%" y1="0%" x2="100%" y2="617.184879%" id="linearGradient-1">
            <stop stop-color="#B9F4FC" offset="0%"></stop>
            <stop stop-color="#24DAC6" offset="100%"></stop>
        </linearGradient>
        <polygon id="path-2" points="0.253971429 0.12831968 7.36574419 0.12831968 7.36574419 4.0078034 0.253971429 4.0078034"></polygon>
    </defs>
    <g id="MOBILE" stroke="none" stroke-width="1" fill="none" fill-rule="evenodd">
        <g id="4.2-Shop-Detail-Page-1" transform="translate(-60.000000, -14.000000)">
            <g id="Header">
                <g id="price-cart-logo" transform="translate(60.000000, 14.000000)">
                    <path d="M11.6821429,3.54631289 C11.6631429,3.55331289 11.6436429,3.55931289 11.6251429,3.56631289 L11.6316429,3.57631289 L11.6821429,3.54631289 Z" id="Fill-1" fill="#000000"></path>
                    <path d="M13.6683143,2.33590729 C13.6763143,2.33590729 13.6838143,2.33740729 13.6913143,2.33790729 C13.6923143,2.33690729 13.6928143,2.33640729 13.6933143,2.33590729 L13.6683143,2.33590729 Z" id="Fill-3" fill="#000000"></path>
                    <path d="M17.6022,5.91248751 C16.9622,6.36074326 16.2864857,6.67751449 15.6499143,6.85934865 C15.7827714,7.09757443 15.8590571,7.37176424 15.8590571,7.66407992 C15.8590571,7.69285115 15.8562,7.72104695 15.8547714,7.74953047 C16.5956286,7.54439161 17.3710571,7.18072328 18.1170571,6.65795005 C18.4367714,6.43382218 18.7287714,6.19358242 18.9967714,5.94356044 C18.8704857,5.65786214 18.7259143,5.37878122 18.5542,5.11120879 C18.2727714,5.39460539 17.9542,5.66591808 17.6022,5.91248751" id="Fill-5" fill="url(#linearGradient-1)"></path>
                    <g id="Group-9" transform="translate(13.428571, 0.159393)">
                        <mask id="mask-3" fill="white">
                            <use xlink:href="#path-2"></use>
                        </mask>
                        <g id="Clip-8"></g>
                        <path d="M1.61168571,2.22398721 C1.6394,2.20413506 1.66511429,2.18284436 1.69311429,2.16356763 C2.74711429,1.42501019 3.89968571,1.03602318 4.80911429,1.03602318 C5.45197143,1.03602318 5.9734,1.23051668 6.2514,1.63331389 C6.58311429,2.11321798 6.51825714,2.81581139 6.15311429,3.55523197 C6.41997143,3.69621099 6.68082857,3.84783536 6.93568571,4.0078034 C7.46768571,2.94902218 7.52854286,1.89196723 6.99197143,1.11485634 C6.0074,-0.309894905 3.45368571,-0.176396404 1.17825714,1.41781738 C0.844542857,1.65143976 0.537114286,1.9075037 0.253971429,2.17651469 L0.577971429,2.17651469 C0.926542857,2.17651469 1.27054286,2.19464056 1.61168571,2.22398721" id="Fill-7" fill="url(#linearGradient-1)" mask="url(#mask-3)"></path>
                    </g>
                    <path d="M14.2221714,6.01603516 C13.7776,6.01603516 13.3747429,6.19527992 13.0801714,6.48500619 C12.8541714,6.70683237 12.6918857,6.99368152 12.6227429,7.31591928 C12.5987429,7.42841479 12.5853143,7.54465055 12.5853143,7.66433886 C12.5853143,8.57466054 13.3181714,9.31235485 14.2221714,9.31235485 C15.0976,9.31235485 15.8104571,8.61983137 15.8550286,7.7495017 C15.8561714,7.72101818 15.8590286,7.69311009 15.8590286,7.66433886 C15.8590286,7.37173546 15.7824571,7.09754565 15.6498857,6.85931988 C15.3698857,6.3563988 14.8356,6.01603516 14.2221714,6.01603516 Z M20.3641714,4.167196 C20.0578857,4.77657063 19.5950286,5.38565754 18.9967429,5.94381938 C19.9830286,8.18222098 19.5724571,10.8990881 17.7524571,12.7326785 L8.83074286,21.7173578 C8.32017143,22.2309243 7.48817143,22.2309243 6.97731429,21.7173578 C6.97502857,21.7147684 6.97302857,21.7139053 6.97188571,21.7118913 L0.272171429,14.966189 C0.270742857,14.9638873 0.2696,14.9627365 0.2676,14.9610102 C0.150742857,14.8430482 0.0633142857,14.7069602 0.000171428571,14.5631041 L0.000171428571,31.8077155 L14.1321714,31.8077155 L14.1321714,26.2079712 C20.6544571,26.2079712 25.9641714,20.8191201 25.9641714,14.29323 C25.9641714,10.0022889 23.7187429,6.27497622 20.3641714,4.167196 Z M9.18988571,4.10965355 C10.3201714,2.97117602 11.7898857,2.38424296 13.2741714,2.33590729 L0.000171428571,2.33590729 L0.000171428571,13.4925267 C0.0633142857,13.3483828 0.150742857,13.2122949 0.2676,13.0946206 L9.18988571,4.10965355 Z M14.8807429,2.50191728 C14.4861714,2.40812308 14.0850286,2.35086833 13.6813143,2.33677043 C13.6818857,2.33648272 13.6821714,2.336195 13.6824571,2.33590729 L14.0064571,2.33590729 C14.3550286,2.33590729 14.6990286,2.35403317 15.0401714,2.38337982 C16.6661714,2.52292028 18.2024571,2.98728791 19.5816,3.71462458 C19.3510286,4.18100619 19.0010286,4.66148571 18.5541714,5.11118002 C18.3261714,4.75671848 18.0607429,4.41980739 17.7524571,4.10965355 C16.9327429,3.28391928 15.9333143,2.75222697 14.8807429,2.50191728 Z" id="Fill-10" fill="url(#linearGradient-1)"></path>
                    <path d="M20.3642,4.16725355 C20.1093429,4.0069978 19.8484857,3.85566114 19.5816286,3.71468212 C19.3513429,4.18106374 19.0010571,4.66154326 18.5542,5.11123756 C18.7259143,5.37852228 18.8704857,5.65789091 18.9967714,5.94358921 C19.5950571,5.38571508 20.0579143,4.77662817 20.3642,4.16725355" id="Fill-12" fill="url(#linearGradient-1)"></path>
                </g>
            </g>
        </g>
    </g>
</svg>