<?xml version="1.0" encoding="UTF-8"?>
<svg width="16px" height="18px" viewBox="0 0 16 18" version="1.1" xmlns="http://www.w3.org/2000/svg" xmlns:xlink="http://www.w3.org/1999/xlink">
    <!-- Generator: sketchtool 52.6 (67491) - http://www.bohemiancoding.com/sketch -->
    <title>B76517F0-A81F-4CDD-9265-D2E593B8FA3D</title>
    <desc>Created with sketchtool.</desc>
    <defs>
        <polygon id="path-1" points="0 0.0278063778 5.79370476 0.0278063778 5.79370476 6.1984178 0 6.1984178"></polygon>
    </defs>
    <g id="Designs" stroke="none" stroke-width="1" fill="none" fill-rule="evenodd">
        <g id="Store-list---price-correction-3" transform="translate(-118.000000, -522.000000)">
            <g id="price-report-link" transform="translate(118.000000, 522.000000)">
                <g id="icons/price-report">
                    <path d="M10.1644425,13.6483068 C9.95912402,13.6483068 9.76774972,13.5116576 9.69856536,13.2951864 C9.61195084,13.023867 9.75040894,12.7298356 10.0077497,12.6386105 L10.0614704,12.6198565 C10.1663196,12.5838565 10.2296045,12.5620869 10.3430346,12.4735948 C10.3506324,12.4675634 10.3584983,12.4618147 10.366543,12.4563487 C10.6363084,12.2701288 10.7216715,11.892223 10.5570235,11.6137414 C10.4642413,11.4569246 9.9672581,11.4841602 9.55358212,11.6684953 C8.82267709,11.9943801 8.11769385,11.8112702 7.75729162,11.2022859 C7.36685587,10.5426 7.55635307,9.65560524 8.17928045,9.22266283 C8.3728,9.08450576 8.67116872,8.9678356 8.72935866,8.94568901 C8.98500112,8.84862094 9.26656536,8.98819162 9.35854302,9.2574377 C9.45069944,9.52668377 9.31840894,9.82354241 9.06321341,9.92070471 C8.96471061,9.95840105 8.79425251,10.0351131 8.73016313,10.0812911 C8.72739218,10.0832702 8.72453184,10.0853435 8.72167151,10.0872283 C8.53950391,10.2129455 8.4811352,10.4670188 8.59143687,10.6536157 C8.72122458,10.8727257 9.01011844,10.7852702 9.17074413,10.7136471 C10.2708112,10.223312 11.0786771,10.5367571 11.3912581,11.0650712 C11.8342525,11.8137204 11.6210682,12.8197414 10.9171575,13.3151654 C10.6809117,13.4972387 10.5066994,13.5571759 10.3662749,13.6054272 L10.321314,13.6210712 C10.269381,13.6395424 10.2164648,13.6483068 10.1644425,13.6483068" id="Fill-1" fill="#7ECFEC"></path>
                    <path d="M8.29703687,10.3085058 C8.16733855,10.3085058 8.03790838,10.2547885 7.94137207,10.1480136 L7.59321564,9.76341675 C7.40568492,9.55636963 7.41301453,9.22822304 7.6094838,9.0306 C7.8057743,8.83288272 8.11710391,8.84061047 8.30445587,9.04775183 L8.65261229,9.43234869 C8.84005363,9.63939581 8.83272402,9.96754241 8.63634413,10.1651654 C8.5411486,10.2609141 8.41895866,10.3085058 8.29703687,10.3085058" id="Fill-3" fill="#7ECFEC"></path>
                    <path d="M11.1875754,13.6625183 C11.0578771,13.6625183 10.9284469,13.608801 10.8319106,13.5020262 L10.460514,13.0917958 C10.2730726,12.8847487 10.2803128,12.5566021 10.4767821,12.3589791 C10.6730726,12.161356 10.9844916,12.1689895 11.1717542,12.3761309 L11.5431508,12.7863613 C11.7305922,12.9934084 11.723352,13.321555 11.5268827,13.519178 C11.4316872,13.6149267 11.3094972,13.6625183 11.1875754,13.6625183" id="Fill-5" fill="#7ECFEC"></path>
                    <path d="M5.58230168,7.43125759 C5.53412291,7.43125759 5.48576536,7.42381257 5.43865922,7.40863979 C5.42301676,7.40364503 5.05054749,7.28311099 4.50824581,7.06701675 C4.38382123,7.01735183 4.2837095,6.91670262 4.23088268,6.78796963 C4.17805587,6.65914241 4.17689385,6.51325759 4.22793296,6.38367644 C4.30712849,6.18228377 4.42252514,5.99992775 4.57099441,5.8419801 C4.81975419,5.57706911 5.13546369,5.40847225 5.48379888,5.35437801 C5.6202905,5.3333623 5.75848045,5.37322618 5.8652067,5.46463979 C5.97211173,5.55614764 6.03781006,5.69053508 6.04612291,5.83538325 C6.08321788,6.47047225 6.07418994,6.90671309 6.07374302,6.92490157 C6.07025698,7.08709005 5.99481564,7.23815812 5.87021229,7.33305864 C5.78538547,7.39770785 5.68446927,7.43125759 5.58230168,7.43125759" id="Fill-7" fill="#7ECFEC"></path>
                    <path d="M5.72213631,6.37248063 C5.6908514,6.37248063 5.65938771,6.37493089 5.62783464,6.37983141 C5.49098547,6.40112984 5.36736536,6.46728691 5.26966704,6.5713288 C5.21129832,6.63343351 5.16642682,6.70392565 5.13621453,6.7806377 C5.02975642,7.0423445 5.08428156,7.34693089 5.26966704,7.5442712 C5.39006927,7.67253298 5.54980112,7.74311937 5.71954413,7.74311937 C5.88919777,7.74311937 6.04892961,7.67253298 6.16933184,7.54436545 C6.16942123,7.5442712 6.16942123,7.5442712 6.16942123,7.5442712 C6.4213095,7.27606178 6.4213095,6.83963246 6.16942123,6.5713288 C6.04821453,6.44231309 5.88910838,6.37248063 5.72213631,6.37248063 Z M5.71954413,8.77976859 C5.2853095,8.77976859 4.87744358,8.60005131 4.5708514,8.27360105 C4.09961117,7.77167435 3.96597989,7.02754869 4.23029274,6.37785236 C4.30716425,6.18220838 4.42256089,5.9999466 4.57094078,5.84199895 C4.81970056,5.57708796 5.13549944,5.4084911 5.48383464,5.35439686 C5.98948827,5.2753288 6.50703017,5.45730785 6.86814749,5.84199895 C7.49768939,6.51242827 7.49768939,7.60326597 6.8680581,8.27369529 L6.86814749,8.27360105 C6.56164469,8.60005131 6.15368939,8.77976859 5.71954413,8.77976859 Z M3.35047151,9.34521361 C3.87409162,9.90406178 8.89228156,15.2482712 10.2714994,16.7172031 L14.788505,11.9067738 C13.4387844,10.4693183 8.52821453,5.23961152 7.85424804,4.52083665 C7.63141006,4.28344398 6.64164469,4.15273194 5.37192402,4.34470052 C4.41532067,4.48983141 3.79292961,4.74560105 3.6736,4.87273194 C3.6736,4.87282618 3.52262793,5.05160105 3.3732648,5.8471822 C3.09375642,7.34476335 3.16052737,9.05344398 3.35047151,9.34521361 Z M10.2714994,17.9722084 C10.1403709,17.9722084 10.0145162,17.916889 9.92218101,17.8185958 C9.92218101,17.8185958 3.21147709,10.6719361 2.64513073,10.0675696 C2.46242682,9.87305654 2.21724246,9.45726597 2.20133184,8.10349634 C2.19203575,7.3102712 2.26953296,6.3918 2.40861676,5.64644921 C2.61920894,4.52470052 2.88602458,4.23858534 2.97371173,4.14462723 C3.45147709,3.63582094 4.71216983,3.39748586 5.23212514,3.31860628 C5.98966704,3.20400942 7.82939888,3.02089948 8.5529743,3.79150681 L8.55324246,3.79178953 C9.33438212,4.62487853 15.8295777,11.5420618 15.8295777,11.5420618 C16.0192536,11.7441141 16.0192536,12.0694335 15.8295777,12.2713916 L10.6209073,17.8185958 C10.5285721,17.916889 10.4028067,17.9722084 10.2714994,17.9722084 Z" id="Fill-9" fill="#7ECFEC"></path>
                    <path d="M5.12271732,7.29979162 C5.15435978,7.39016859 5.20370056,7.47404293 5.26966704,7.54425236 C5.39006927,7.67251414 5.54980112,7.74319476 5.71954413,7.74319476 C5.88919777,7.74319476 6.04892961,7.67251414 6.16933184,7.5443466 C6.16942123,7.54425236 6.16942123,7.54425236 6.16942123,7.54425236 C6.4213095,7.27604293 6.4213095,6.83961361 6.16942123,6.57130995 C6.13911955,6.53907958 6.10649385,6.51052461 6.07199106,6.48583351 C6.07744358,6.75168691 6.07404693,6.91396963 6.07377877,6.92490157 C6.07029274,7.08709005 5.9948514,7.23815812 5.87015866,7.33315288 C5.74546592,7.4280534 5.58564469,7.45585445 5.43860559,7.40863979 C5.43002458,7.40581257 5.31453855,7.36849319 5.12271732,7.29979162 M5.71954413,8.77984398 C5.2853095,8.77984398 4.87744358,8.60003246 4.5708514,8.2735822 C4.09961117,7.7716555 3.96597989,7.02752984 4.23029274,6.37783351 C4.33406927,6.1228178 4.60964469,5.99917382 4.85590168,6.09727853 C4.93411397,6.12847225 5.00866145,6.15759267 5.07891844,6.18454555 C5.07534302,6.09529948 5.07069497,5.99973927 5.06488492,5.89890157 C5.04915307,5.63050366 5.23087374,5.3940534 5.48311955,5.35447225 C5.98948827,5.27483874 6.50711955,5.45738325 6.86814749,5.8419801 C7.49768939,6.51240942 7.49768939,7.60324712 6.8680581,8.27367644 C6.56164469,8.60003246 6.15368939,8.77984398 5.71954413,8.77984398" id="Fill-12" fill="#7ECFEC"></path>
                    <path d="M5.58229274,7.4312199 C5.53411397,7.4312199 5.48575642,7.42377487 5.43865028,7.40860209 C5.42300782,7.40360733 5.05053855,7.28316754 4.50823687,7.0670733 C4.38381229,7.01740838 4.28370056,6.91666492 4.23087374,6.78793194 C4.17804693,6.65919895 4.17688492,6.51331414 4.22792402,6.38373298 C4.30711955,6.18224607 4.4225162,5.99998429 4.57098547,5.84194241 C4.81974525,5.57703141 5.13545475,5.4085288 5.48378994,5.35434031 C5.62028156,5.33341885 5.75847151,5.37328272 5.86519777,5.46469634 C5.97210279,5.55610995 6.03780112,5.69059162 6.04620335,5.83543979 C6.08320894,6.47043455 6.07418101,6.90667539 6.07373408,6.92495812 C6.07024804,7.0871466 5.9948067,7.23812042 5.87020335,7.33311518 C5.78546592,7.39767016 5.68446034,7.4312199 5.58229274,7.4312199 Z" id="Fill-14" fill="#7ECFEC"></path>
                    <g id="Group-18" transform="translate(0.000000, 0.066440)">
                        <mask id="mask-2" fill="white">
                            <use xlink:href="#path-1"></use>
                        </mask>
                        <g id="Clip-17"></g>
                        <path d="M2.90029944,1.06577906 C2.58602011,1.06577906 2.2371486,1.19884712 1.84474637,1.4669623 C1.2531933,1.87087853 0.963763128,2.31315079 0.984232402,2.78133927 C1.01650056,3.51613508 1.74159553,4.30756963 2.57413184,4.88300419 C2.74181899,4.32679476 2.90798659,4.14858534 2.97368492,4.07818743 C3.3257743,3.70320314 4.10280223,3.47514031 4.69551732,3.34951728 C4.38043352,2.2019466 3.88005363,1.39599895 3.31585251,1.15144398 C3.18427709,1.09442827 3.04599777,1.06577906 2.90029944,1.06577906 M2.89100335,6.1984178 C2.81261229,6.1984178 2.73422123,6.17862723 2.66289162,6.13923455 C1.41650056,5.45108796 0.0630256983,4.2200199 0.00206480447,2.82911937 C-0.0239463687,2.23606178 0.181997765,1.36744398 1.31013184,0.59693089 C2.16322682,0.0141455497 2.9639419,-0.12193822 3.68984134,0.192731937 C5.00318212,0.762135079 5.56461229,2.60586283 5.78235531,3.65429215 C5.81149497,3.79499372 5.78396425,3.94210366 5.70619888,4.06047016 C5.62834413,4.17883665 5.5073162,4.25771623 5.37207598,4.27816649 C4.41529385,4.42339162 3.79290279,4.67916126 3.67357318,4.80629215 C3.67357318,4.80638639 3.52260112,4.98516126 3.37323799,5.78074241 C3.34311508,5.94104607 3.24309274,6.0770356 3.10329385,6.14762199 C3.03607598,6.18154869 2.96349497,6.1984178 2.89100335,6.1984178" id="Fill-16" fill="#7ECFEC" mask="url(#mask-2)"></path>
                    </g>
                    <path d="M5.58230168,7.43125759 C5.53412291,7.43125759 5.48576536,7.42381257 5.43865922,7.40863979 C5.42301676,7.40364503 5.05054749,7.28311099 4.50824581,7.06701675 C4.25430168,6.96580209 4.12621229,6.66668168 4.22221229,6.39894346 C4.31821229,6.13111099 4.60227933,5.99625236 4.85586592,6.09727853 C4.93407821,6.12847225 5.0086257,6.15759267 5.07888268,6.18454555 C5.07530726,6.09529948 5.07065922,5.99973927 5.06484916,5.89890157 C5.02355307,5.17767644 4.94176536,4.51959267 4.82189944,3.94255602 C4.76379888,3.66294346 4.9316648,3.38662932 5.19687151,3.32527853 C5.46172067,3.26392775 5.72424581,3.44110052 5.78225698,3.72061885 C5.91311732,4.3500534 6.00187709,5.06176021 6.04621229,5.83594869 C6.08321788,6.47047225 6.07418994,6.90671309 6.07374302,6.92490157 C6.07025698,7.08709005 5.99481564,7.23815812 5.87021229,7.33305864 C5.78538547,7.39770785 5.68446927,7.43125759 5.58230168,7.43125759" id="Fill-19" fill="#7ECFEC"></path>
                </g>
            </g>
        </g>
    </g>
</svg>