<?xml version="1.0" encoding="UTF-8"?>
<svg width="12px" height="12px" viewBox="0 0 12 12" version="1.1" xmlns="http://www.w3.org/2000/svg" xmlns:xlink="http://www.w3.org/1999/xlink">
    <!-- Generator: Sketch 48.2 (47327) - http://www.bohemiancoding.com/sketch -->
    <title>Combined Shape</title>
    <desc>Created with Sketch.</desc>
    <defs></defs>
    <g id="3.2-New-Products" stroke="none" stroke-width="1" fill="none" fill-rule="evenodd" transform="translate(-157.000000, -972.000000)">
        <g id="add-to-calc-btn" transform="translate(120.000000, 958.000000)" fill="#FFFFFF" fill-rule="nonzero">
            <path d="M43.75,19.25 L48.25,19.25 C48.6642136,19.25 49,19.5857864 49,20 C49,20.4142136 48.6642136,20.75 48.25,20.75 L43.75,20.75 L43.75,25.25 C43.75,25.6642136 43.4142136,26 43,26 C42.5857864,26 42.25,25.6642136 42.25,25.25 L42.25,20.75 L37.75,20.75 C37.3357864,20.75 37,20.4142136 37,20 C37,19.5857864 37.3357864,19.25 37.75,19.25 L42.25,19.25 L42.25,14.75 C42.25,14.3357864 42.5857864,14 43,14 C43.4142136,14 43.75,14.3357864 43.75,14.75 L43.75,19.25 Z" id="Combined-Shape"></path>
        </g>
    </g>
</svg>