<?xml version="1.0" encoding="UTF-8"?>
<svg width="30px" height="30px" viewBox="0 0 30 30" version="1.1" xmlns="http://www.w3.org/2000/svg" xmlns:xlink="http://www.w3.org/1999/xlink">
    <!-- Generator: Sketch 48.2 (47327) - http://www.bohemiancoding.com/sketch -->
    <title>Fill 1</title>
    <desc>Created with Sketch.</desc>
    <defs></defs>
    <g id="3.2-New-Products" stroke="none" stroke-width="1" fill="none" fill-rule="evenodd" transform="translate(-252.000000, -389.000000)">
        <g id="Group-2" transform="translate(0.000000, 283.000000)" fill="#FFFFFF">
            <g id="add-to-calc-btn" transform="translate(231.000000, 101.000000)">
                <g id="add-icon" transform="translate(21.000000, 5.000000)">
                    <path d="M21.9028906,10.5976215 C20.5216696,10.5976215 19.4026418,9.47814308 19.4026418,8.09739186 C19.4026418,6.71618147 20.5216696,5.59670309 21.9028906,5.59670309 C23.2836523,5.59670309 24.4031393,6.71618147 24.4031393,8.09739186 C24.4031393,9.47814308 23.2836523,10.5976215 21.9028906,10.5976215 Z M17.9410639,1.87643493 L17.9350946,1.86771053 C17.9516251,1.86174121 17.9686149,1.85669024 17.9851454,1.85026173 L17.9410639,1.87643493 Z M27.2955299,2.70479383 C23.6891105,-0.901597943 17.8216765,-0.901597943 14.2152571,2.70479383 L0.585802077,16.3346037 C-0.195267359,17.1147488 -0.195267359,18.3862154 0.585802077,19.1659014 C0.588557172,19.1691156 0.590393902,19.1709523 0.592230632,19.1746258 L10.8269494,29.4074295 C10.8287862,29.4101846 10.8315412,29.4120213 10.8352147,29.4152356 C11.6153658,30.1949215 12.8863829,30.1949215 13.666534,29.4152356 L27.2955299,15.7858848 C30.90149,12.1781155 30.90149,6.3111856 27.2955299,2.70479383 Z" id="Fill-1"></path>
                </g>
            </g>
        </g>
    </g>
</svg>