<?xml version="1.0" encoding="UTF-8"?>
<svg width="12px" height="12px" viewBox="0 0 12 12" version="1.1" xmlns="http://www.w3.org/2000/svg" xmlns:xlink="http://www.w3.org/1999/xlink">
    <!-- Generator: Sketch 48.2 (47327) - http://www.bohemiancoding.com/sketch -->
    <title>Combined Shape</title>
    <desc>Created with Sketch.</desc>
    <defs></defs>
    <g id="4.0-Product-Page" stroke="none" stroke-width="1" fill="none" fill-rule="evenodd" transform="translate(-81.000000, -479.000000)">
        <path d="M87.75,484.25 L92.25,484.25 C92.6642136,484.25 93,484.585786 93,485 C93,485.414214 92.6642136,485.75 92.25,485.75 L87.75,485.75 L87.75,490.25 C87.75,490.664214 87.4142136,491 87,491 C86.5857864,491 86.25,490.664214 86.25,490.25 L86.25,485.75 L81.75,485.75 C81.3357864,485.75 81,485.414214 81,485 C81,484.585786 81.3357864,484.25 81.75,484.25 L86.25,484.25 L86.25,479.75 C86.25,479.335786 86.5857864,479 87,479 C87.4142136,479 87.75,479.335786 87.75,479.75 L87.75,484.25 Z" id="Combined-Shape" fill="#FFFFFF" fill-rule="nonzero"></path>
    </g>
</svg>