<?xml version="1.0" encoding="UTF-8"?>
<svg width="26px" height="15px" viewBox="0 0 26 15" version="1.1" xmlns="http://www.w3.org/2000/svg" xmlns:xlink="http://www.w3.org/1999/xlink">
    <!-- Generator: sketchtool 49.3 (51167) - http://www.bohemiancoding.com/sketch -->
    <title>F1A2A672-A348-4FD0-BB4D-8A4584FC5590</title>
    <desc>Created with sketchtool.</desc>
    <defs></defs>
    <g id="MOBILE" stroke="none" stroke-width="1" fill="none" fill-rule="evenodd">
        <g id="4.0-Product-Page" transform="translate(-80.000000, -691.000000)" fill="#FFFFFF">
            <path d="M89.1591759,703.727273 C88.5416593,703.727273 88.0394722,704.238636 88.0394722,704.863636 C88.0394722,705.494318 88.5416593,706 89.1591759,706 L104.601341,706 C105.219977,706 105.721045,705.494318 105.721045,704.863636 C105.721045,704.238636 105.219977,703.727273 104.601341,703.727273 L89.1591759,703.727273 Z M81.1202635,706 L84.4788146,706 C85.0980107,706 85.5985183,705.494318 85.5985183,704.863636 C85.5985183,704.238636 85.0980107,703.727273 84.4788146,703.727273 L81.1202635,703.727273 C80.5021871,703.727273 80,704.238636 80,704.863636 C80,705.494318 80.5021871,706 81.1202635,706 L81.1202635,706 Z M89.1591759,697.363636 C88.5416593,697.363636 88.0394722,697.875 88.0394722,698.5 C88.0394722,699.130682 88.5416593,699.636364 89.1591759,699.636364 L104.880296,699.636364 C105.498933,699.636364 106,699.130682 106,698.5 C106,697.875 105.498933,697.363636 104.880296,697.363636 L89.1591759,697.363636 Z M81.1202635,699.636364 L84.4788146,699.636364 C85.0980107,699.636364 85.5985183,699.130682 85.5985183,698.5 C85.5985183,697.875 85.0980107,697.363636 84.4788146,697.363636 L81.1202635,697.363636 C80.5021871,697.363636 80,697.875 80,698.5 C80,699.130682 80.5021871,699.636364 81.1202635,699.636364 L81.1202635,699.636364 Z M89.1591759,691 C88.5416593,691 88.0394722,691.511364 88.0394722,692.136364 C88.0394722,692.767045 88.5416593,693.272727 89.1591759,693.272727 L104.780067,693.272727 C105.398703,693.272727 105.899771,692.767045 105.899771,692.136364 C105.899771,691.511364 105.398703,691 104.780067,691 L89.1591759,691 Z M81.1202635,693.272727 L84.4788146,693.272727 C85.0980107,693.272727 85.5985183,692.767045 85.5985183,692.136364 C85.5985183,691.511364 85.0980107,691 84.4788146,691 L81.1202635,691 C80.5021871,691 80,691.511364 80,692.136364 C80,692.767045 80.5021871,693.272727 81.1202635,693.272727 L81.1202635,693.272727 Z" id="icons/list"></path>
        </g>
    </g>
</svg>