<?xml version="1.0" encoding="UTF-8"?>
<svg width="17px" height="20px" viewBox="0 0 17 20" version="1.1" xmlns="http://www.w3.org/2000/svg" xmlns:xlink="http://www.w3.org/1999/xlink">
    <!-- Generator: sketchtool 49.3 (51167) - http://www.bohemiancoding.com/sketch -->
    <title>353C740F-C917-46CB-8F10-38BD19674C80</title>
    <desc>Created with sketchtool.</desc>
    <defs>
        <path d="M12.9420598,16.5106205 C12.0759518,17.4069197 11.1505151,18.2234815 10.2248003,18.9461709 C9.90028878,19.1995114 9.59834763,19.4234246 9.32637791,19.6159957 C9.16064042,19.733348 9.03987357,19.8153501 8.97149517,19.8600419 C8.68598067,20.0466527 8.31401933,20.0466527 8.02850483,19.8600419 C7.96012643,19.8153501 7.83935958,19.733348 7.67362209,19.6159957 C7.40165237,19.4234246 7.09971122,19.1995114 6.77519974,18.9461709 C5.84948493,18.2234815 4.92404822,17.4069197 4.05794022,16.5106205 C1.53204134,13.8966729 -1.88737914e-16,11.1430038 0,8.33333326 C6.99523148e-08,3.73096036 3.80557968,-1.85037172e-16 8.5,0 C13.1944203,1.85037172e-16 16.9999999,3.73096036 17,8.33333326 C17,11.1430038 15.4679587,13.8966729 12.9420598,16.5106205 Z M9.16582474,17.6423707 C10.0330787,16.9653206 10.9006107,16.1998511 11.7079402,15.3643794 C13.9632913,13.0304104 15.3,10.6278295 15.3,8.33333327 C15.2999999,4.65143497 12.2555363,1.66666668 8.5,1.66666668 C4.74446374,1.66666668 1.70000006,4.65143497 1.7,8.33333327 C1.7,10.6278295 3.03670866,13.0304104 5.29205978,15.3643794 C6.09938928,16.1998511 6.96692132,16.9653206 7.83417526,17.6423707 C8.07089542,17.827174 8.29403519,17.9946752 8.5,18.1438473 C8.70596481,17.9946752 8.92910458,17.827174 9.16582474,17.6423707 Z M8.5,11.6666666 C6.62223185,11.6666666 5.1,10.1742824 5.1,8.33333327 C5.1,6.49238409 6.62223185,4.99999992 8.5,4.99999992 C10.3777681,4.99999992 11.9,6.49238409 11.9,8.33333327 C11.9,10.1742824 10.3777681,11.6666666 8.5,11.6666666 Z M8.5,9.99999994 C9.43888407,9.99999994 10.2,9.25380786 10.2,8.33333327 C10.2,7.41285868 9.43888407,6.66666659 8.5,6.66666659 C7.56111593,6.66666659 6.8,7.41285868 6.8,8.33333327 C6.8,9.25380786 7.56111593,9.99999994 8.5,9.99999994 Z" id="path-1"></path>
    </defs>
    <g id="MOBILE" stroke="none" stroke-width="1" fill="none" fill-rule="evenodd" opacity="0.5">
        <g id="4.0-Product-Page" transform="translate(-144.000000, -687.000000)">
            <g id="icons/map-pin" transform="translate(144.000000, 687.000000)">
                <mask id="mask-2" fill="white">
                    <use xlink:href="#path-1"></use>
                </mask>
                <use id="Combined-Shape" fill="#525764" fill-rule="nonzero" xlink:href="#path-1"></use>
            </g>
        </g>
    </g>
</svg>