<?xml version="1.0" encoding="UTF-8"?>
<svg width="16px" height="18px" viewBox="0 0 16 18" version="1.1" xmlns="http://www.w3.org/2000/svg" xmlns:xlink="http://www.w3.org/1999/xlink">
    <!-- Generator: sketchtool 49.3 (51167) - http://www.bohemiancoding.com/sketch -->
    <title>FA07F190-AE32-4F88-BDF1-88017C0900D6</title>
    <desc>Created with sketchtool.</desc>
    <defs></defs>
    <g id="MOBILE" stroke="none" stroke-width="1" fill="none" fill-rule="evenodd">
        <g id="5.1-Calculation-Result" transform="translate(-284.000000, -21.000000)" fill="#24DAC6">
            <g id="Header">
                <g id="4F" transform="translate(284.000000, 21.000000)">
                    <path d="M7.904,1.7145 C9.40068571,1.7145 10.6185143,2.916 10.6185143,4.3875 C10.6185143,5.8635 9.40068571,7.0605 7.904,7.0605 C6.40731429,7.0605 5.18994286,5.8635 5.18994286,4.3875 C5.18994286,2.916 6.40731429,1.7145 7.904,1.7145 Z M7.904,8.4105 C10.1568,8.4105 11.9899429,6.606 11.9899429,4.3875 C11.9899429,2.169 10.1568,0.3645 7.904,0.3645 C5.6512,0.3645 3.81851429,2.169 3.81851429,4.3875 C3.81851429,6.606 5.6512,8.4105 7.904,8.4105 Z M14.3803429,16.371 L1.42765714,16.371 L1.42765714,13.239 C1.42765714,12.447 1.74262857,11.673 2.27017143,11.1645 C2.53988571,10.9035 2.98422857,10.5885 3.61828571,10.6065 C3.968,10.6155 5.05142857,10.602 6.36891429,10.5975 C8.33737143,10.5885 10.8201143,10.575 12.1046857,10.575 C13.6681143,10.575 14.3803429,11.8305 14.3803429,12.996 L14.3803429,16.371 Z M12.1046857,9.225 C10.8187429,9.225 8.33325714,9.2385 6.36251429,9.2475 C5.05462857,9.252 3.9744,9.2565 3.63702857,9.2565 C3.63565714,9.2565 3.63382857,9.2565 3.632,9.2565 C2.78262857,9.243 1.95611429,9.576 1.30971429,10.2015 C0.5248,10.9575 0.0562285714,12.0915 0.0562285714,13.239 L0.0562285714,17.046 C0.0562285714,17.415 0.362971429,17.721 0.741942857,17.721 L15.0660571,17.721 C15.4445714,17.721 15.7517714,17.415 15.7517714,17.046 L15.7517714,12.996 C15.7517714,11.169 14.4736,9.225 12.1046857,9.225 Z"></path>
                </g>
            </g>
        </g>
    </g>
</svg>