<?xml version="1.0" encoding="UTF-8"?>
<svg width="14px" height="13px" viewBox="0 0 14 13" version="1.1" xmlns="http://www.w3.org/2000/svg" xmlns:xlink="http://www.w3.org/1999/xlink">
    <!-- Generator: sketchtool 49.3 (51167) - http://www.bohemiancoding.com/sketch -->
    <title>991E33E4-7E0E-4AE7-BE0D-7344B07F5ABC</title>
    <desc>Created with sketchtool.</desc>
    <defs></defs>
    <g id="MOBILE" stroke="none" stroke-width="1" fill="none" fill-rule="evenodd">
        <g id="4.2-Shop-Detail-Page-2" transform="translate(-212.000000, -81.000000)" fill="#525764" fill-rule="nonzero">
            <g id="icons/star-outline" transform="translate(212.000000, 81.000000)">
                <path d="M6.600653,1.9555526 L5.28467741,4.62157435 C5.19735357,4.79848285 5.02864244,4.92115841 4.83342993,4.94969164 L1.8897,5.37996186 L4.01929268,7.45418513 C4.16081692,7.59202974 4.2254145,7.79070843 4.19201817,7.985426 L3.68956148,10.915004 L6.32138223,9.5309559 C6.49621195,9.4390147 6.70509405,9.4390147 6.87992377,9.5309559 L9.51174453,10.915004 L9.00928783,7.985426 C8.9758915,7.79070843 9.04048908,7.59202974 9.18201332,7.45418513 L11.311606,5.37996186 L8.36787607,4.94969164 C8.17266356,4.92115841 8.00395243,4.79848285 7.91662859,4.62157435 L6.600653,1.9555526 Z M4.34809618,3.80787966 L6.06262859,0.334425651 C6.28272982,-0.111475217 6.91857618,-0.111475217 7.13867741,0.334425651 L8.85320982,3.80787966 L12.6874299,4.36830836 C13.1793787,4.44021405 13.3754488,5.04491881 13.0192927,5.39181487 L10.2453661,8.09361938 L10.9000182,11.910574 C10.9840893,12.4007513 10.46956,12.7745292 10.0293822,12.5430441 L6.600653,10.7399098 L3.17192377,12.5430441 C2.73174603,12.7745292 2.21721672,12.4007513 2.30128783,11.910574 L2.95593993,8.09361938 L0.182013321,5.39181487 C-0.174142797,5.04491881 0.0219272684,4.44021405 0.513876074,4.36830836 L4.34809618,3.80787966 Z" id="Shape"></path>
            </g>
        </g>
    </g>
</svg>