<?xml version="1.0" encoding="UTF-8"?>
<svg width="25px" height="33px" viewBox="0 0 25 33" version="1.1" xmlns="http://www.w3.org/2000/svg" xmlns:xlink="http://www.w3.org/1999/xlink">
    <!-- Generator: sketchtool 49.3 (51167) - http://www.bohemiancoding.com/sketch -->
    <title>CADB158A-3B3B-4A84-8264-07AAD37B73A8</title>
    <desc>Created with sketchtool.</desc>
    <defs>
        <polygon id="path-1" points="0 0 25 0 25 33 0 33"></polygon>
        <linearGradient x1="-377.030263%" y1="0%" x2="100%" y2="617.184879%" id="linearGradient-3">
            <stop stop-color="#B9F4FC" offset="0%"></stop>
            <stop stop-color="#24DAC6" offset="100%"></stop>
        </linearGradient>
        <path d="M22.4362379,4.98186391 C20.0540478,1.82862462 16.4570733,0 12.5000421,0 C8.54413361,0 4.94648549,1.82862462 2.56384635,4.98186391 C-0.854615451,9.50701367 -0.854615451,15.8600145 2.56384635,20.3851643 L11.7803778,32.6341204 C11.9606868,32.8620907 12.2303644,32.9994475 12.5000421,32.9994475 L12.5000421,33 C12.7696075,33 13.0392851,32.8627537 13.2202678,32.6329048 L22.4362379,20.3851643 C25.8545874,15.8600145 25.8545874,9.50701367 22.4362379,4.98186391" id="path-4"></path>
        <filter x="-28.0%" y="-15.2%" width="156.0%" height="142.4%" filterUnits="objectBoundingBox" id="filter-5">
            <feOffset dx="0" dy="2" in="SourceAlpha" result="shadowOffsetOuter1"></feOffset>
            <feGaussianBlur stdDeviation="2" in="shadowOffsetOuter1" result="shadowBlurOuter1"></feGaussianBlur>
            <feColorMatrix values="0 0 0 0 0   0 0 0 0 0   0 0 0 0 0  0 0 0 0.25 0" type="matrix" in="shadowBlurOuter1"></feColorMatrix>
        </filter>
    </defs>
    <g id="MOBILE" stroke="none" stroke-width="1" fill="none" fill-rule="evenodd">
        <g id="4.2-Shop-Detail-Page-2" transform="translate(-87.000000, -328.000000)">
            <g id="pin" transform="translate(87.000000, 328.000000)">
                <g id="Page-1">
                    <mask id="mask-2" fill="white">
                        <use xlink:href="#path-1"></use>
                    </mask>
                    <g id="Clip-2"></g>
                    <g id="Fill-1" mask="url(#mask-2)">
                        <use fill="black" fill-opacity="1" filter="url(#filter-5)" xlink:href="#path-4"></use>
                        <use fill="url(#linearGradient-3)" fill-rule="evenodd" xlink:href="#path-4"></use>
                    </g>
                </g>
                <g id="price-cart-logo-white" transform="translate(7.000000, 6.000000)">
                    <path d="M5.0285,0 C5.019,0.0035 5.00925,0.0065 5,0.01 L5.00325,0.015 L5.0285,0 Z" id="Fill-1" fill="#000000"></path>
                    <path d="M7,0 C7.004,0 7.00775,0.00075 7.0115,0.001 C7.012,0.0005 7.01225,0.00025 7.0125,0 L7,0 Z" id="Fill-3" fill="#000000"></path>
                    <path d="M7.12085965,1.74817201 C6.89826573,1.74817201 6.69655787,1.83331869 6.54906794,1.97094743 C6.43591126,2.07632157 6.3546559,2.21258359 6.32003653,2.36565627 C6.3080199,2.41909504 6.3012963,2.47431054 6.3012963,2.53116611 C6.3012963,2.96359643 6.66823294,3.31402353 7.12085965,3.31402353 C7.55918084,3.31402353 7.91610362,2.98505394 7.93842023,2.57162103 C7.93899245,2.5580905 7.940423,2.54483331 7.940423,2.53116611 C7.940423,2.39217064 7.9020842,2.26192219 7.83570658,2.14875775 C7.69551247,1.90985503 7.42799921,1.74817201 7.12085965,1.74817201 Z M10.1961177,0.869917509 C10.0427625,1.15938888 9.81101305,1.44872358 9.51145542,1.71386733 C10.005282,2.77717577 9.79971169,4.06776981 8.88844994,4.93878069 L4.42140766,9.20677503 C4.16576799,9.45073461 3.74919119,9.45073461 3.49340846,9.20677503 C3.49226401,9.20554498 3.49126263,9.20513496 3.49069041,9.20417826 L0.136188569,5.99976571 C0.135473293,5.99867233 0.134901072,5.99812564 0.133899685,5.99730561 C0.0753901006,5.94127007 0.0316152035,5.8766242 0,5.80828818 L0,14 L7.07579726,14 L7.07579726,11.3399522 C10.3414618,11.3399522 13,8.78008493 13,5.68008981 C13,3.64176307 11.875729,1.87117684 10.1961177,0.869917509 Z M4.60122807,0.842583101 C5.16715452,0.301771855 5.90303057,0.022960902 6.64620243,0 L0,0 L0,5.29973154 C0.0316152035,5.23125885 0.0753901006,5.16661297 0.133899685,5.11071411 L4.60122807,0.842583101 Z M7.45060193,0.0788597647 C7.25304267,0.034304681 7.05219315,0.00710694587 6.85005612,0.000410016108 C6.85034223,0.000273344072 6.85048529,0.000136672036 6.85062834,0 L7.01285296,0 C7.18738033,0 7.35961881,0.00861033826 7.53042674,0.0225508859 C8.344554,0.0888368234 9.11376191,0.309425489 9.80428946,0.654932396 C9.68884389,0.876477766 9.51360125,1.10472007 9.28986289,1.31833846 C9.17570482,1.14995851 9.04280652,0.989915556 8.88844994,0.842583101 C8.47802452,0.450334358 7.97761736,0.197764436 7.45060193,0.0788597647 Z" id="Fill-10" fill="#FFFFFF"></path>
                </g>
            </g>
        </g>
    </g>
</svg>