<?xml version="1.0" encoding="UTF-8"?>
<svg width="32px" height="32px" viewBox="0 0 32 32" version="1.1" xmlns="http://www.w3.org/2000/svg" xmlns:xlink="http://www.w3.org/1999/xlink">
    <!-- Generator: sketchtool 49.3 (51167) - http://www.bohemiancoding.com/sketch -->
    <title>60ADC33F-D3DC-4950-82B3-4E64798B1E3A</title>
    <desc>Created with sketchtool.</desc>
    <defs>
        <polygon id="path-1" points="0 16 10.1052632 16 10.1052632 0 0 0"></polygon>
    </defs>
    <g id="MOBILE" stroke="none" stroke-width="1" fill="none" fill-rule="evenodd">
        <g id="2.2-Forgot-Password-(1/2)" transform="translate(-20.000000, -211.000000)">
            <g id="icon/verification-code" transform="translate(20.000000, 211.000000)">
                <circle id="Oval" fill="#FFFFFF" cx="16" cy="16" r="16"></circle>
                <g id="Page-1" transform="translate(11.000000, 8.000000)">
                    <path d="M1.01052632,0.666666667 C0.808421053,0.666666667 0.673684211,0.8 0.673684211,1 L0.673684211,15 C0.673684211,15.2 0.808421053,15.3333333 1.01052632,15.3333333 L9.09473684,15.3333333 C9.29684211,15.3333333 9.43157895,15.2 9.43157895,15 L9.43157895,1 C9.43157895,0.8 9.29684211,0.666666667 9.09473684,0.666666667 L1.01052632,0.666666667 Z M9.09473684,16 L1.01052632,16 C0.437894737,16 0,15.5666667 0,15 L0,1 C0,0.433333333 0.437894737,0 1.01052632,0 L9.09473684,0 C9.66736842,0 10.1052632,0.433333333 10.1052632,1 L10.1052632,15 C10.1052632,15.5666667 9.66736842,16 9.09473684,16 Z" id="Fill-1" fill="#82D0EB"></path>
                    <mask id="mask-2" fill="white">
                        <use xlink:href="#path-1"></use>
                    </mask>
                    <g id="Clip-4"></g>
                    <polygon id="Fill-3" fill="#82D0EB" mask="url(#mask-2)" points="0.336842105 13.3333333 9.76842105 13.3333333 9.76842105 12.6666667 0.336842105 12.6666667"></polygon>
                    <polygon id="Fill-5" fill="#82D0EB" mask="url(#mask-2)" points="0.336842105 3.33333333 9.76842105 3.33333333 9.76842105 2.66666667 0.336842105 2.66666667"></polygon>
                    <polygon id="Fill-6" fill="#82D0EB" mask="url(#mask-2)" points="4.37894737 14.6666667 5.72631579 14.6666667 5.72631579 14 4.37894737 14"></polygon>
                    <polygon id="Fill-7" fill="#82D0EB" mask="url(#mask-2)" points="3.70526316 2 6.4 2 6.4 1.33333333 3.70526316 1.33333333"></polygon>
                    <path d="M3.36842105,10.4333333 L6.73684211,10.4333333 L6.73684211,7.73333333 L3.36842105,7.73333333 L3.36842105,10.4333333 Z M6.93894737,11.1 L3.16631579,11.1 C2.89684211,11.1 2.69473684,10.9 2.69473684,10.6333333 L2.69473684,7.53333333 C2.69473684,7.26666667 2.89684211,7.06666667 3.16631579,7.06666667 L6.93894737,7.06666667 C7.20842105,7.06666667 7.41052632,7.26666667 7.41052632,7.53333333 L7.41052632,10.6333333 C7.41052632,10.9 7.20842105,11.1 6.93894737,11.1 Z" id="Fill-8" fill="#82D0EB" mask="url(#mask-2)"></path>
                    <path d="M6.09670737,7.7334 L4.07565474,7.7334 C3.73881263,7.7334 3.46933895,7.46673333 3.46933895,7.1334 L3.46933895,6.66673333 C3.46933895,5.76673333 4.17670737,5.00006667 5.08618105,5.00006667 C5.99565474,5.00006667 6.70336,5.7334 6.70336,6.66673333 L6.02967579,6.66673333 C6.02967579,6.1334 5.62546526,5.66673333 5.08618105,5.66673333 C4.54723368,5.66673333 4.14302316,6.10006667 4.14302316,6.66673333 L4.14302316,7.10006667 L6.09670737,7.10006667 L6.09670737,7.7334 Z" id="Fill-9" fill="#82D0EB" mask="url(#mask-2)"></path>
                    <polygon id="Fill-10" fill="#82D0EB" mask="url(#mask-2)" points="4.64842105 10.1 5.32210526 10.1 5.32210526 9.16666667 4.64842105 9.16666667"></polygon>
                </g>
            </g>
        </g>
    </g>
</svg>