<?xml version="1.0" encoding="UTF-8"?>
<svg width="60px" height="60px" viewBox="0 0 60 60" version="1.1" xmlns="http://www.w3.org/2000/svg" xmlns:xlink="http://www.w3.org/1999/xlink">
    <!-- Generator: sketchtool 49.3 (51167) - http://www.bohemiancoding.com/sketch -->
    <title>A7895C10-A781-45D2-8EE3-F0D4866A8055</title>
    <desc>Created with sketchtool.</desc>
    <defs>
        <linearGradient x1="0%" y1="-8.29042279%" x2="96.292613%" y2="100%" id="linearGradient-1">
            <stop stop-color="#24DAC6" offset="0%"></stop>
            <stop stop-color="#82D0EB" offset="100%"></stop>
        </linearGradient>
        <polygon id="path-2" points="0 60 60.001 60 60.001 0 0 0"></polygon>
        <linearGradient x1="0%" y1="-8.29042279%" x2="96.292613%" y2="100%" id="linearGradient-4">
            <stop stop-color="#FFFFFF" offset="0%"></stop>
            <stop stop-color="#83EBE8" offset="100%"></stop>
        </linearGradient>
    </defs>
    <g id="MOBILE" stroke="none" stroke-width="1" fill="none" fill-rule="evenodd">
        <g id="2.1-Signup-(Success)" transform="translate(-135.000000, -179.000000)">
            <g id="icon/success" transform="translate(135.000000, 179.000000)">
                <path d="M55.2006,55.5996 L57.0006,57.9996 L43.7646,57.9996 L47.4966,55.8686 C47.5466,55.8386 47.5836,55.7966 47.6276,55.7606 C47.6606,55.7346 47.6956,55.7116 47.7246,55.6806 C47.8016,55.6006 47.8626,55.5096 47.9076,55.4116 C47.9116,55.4026 47.9196,55.3946 47.9236,55.3856 C47.9706,55.2746 47.9916,55.1536 47.9956,55.0306 C47.9946,55.0196 48.0006,55.0106 48.0006,54.9996 L48.0006,51.9996 L57.0006,51.9996 L55.2006,54.4006 C54.9336,54.7546 54.9336,55.2456 55.2006,55.5996 Z M43.2346,55.9996 L41.0006,57.2776 L41.0006,55.9996 L43.2346,55.9996 Z M19.0006,57.2776 L16.7666,55.9996 L19.0006,55.9996 L19.0006,57.2776 Z M4.8006,54.4006 L3.0006,51.9996 L12.0006,51.9996 L12.0006,54.9996 C12.0006,55.0106 12.0066,55.0196 12.0066,55.0316 C12.0106,55.1546 12.0316,55.2756 12.0786,55.3866 C12.0826,55.3966 12.0896,55.4026 12.0936,55.4116 C12.1386,55.5106 12.2006,55.6006 12.2766,55.6816 C12.3056,55.7126 12.3416,55.7356 12.3746,55.7616 C12.4186,55.7976 12.4556,55.8396 12.5056,55.8696 L16.2356,57.9996 L3.0006,57.9996 L4.8006,55.5996 C5.0666,55.2456 5.0666,54.7546 4.8006,54.4006 Z M14.0006,45.9996 L46.0006,45.9996 L46.0006,50.9996 L46.0006,53.9996 L40.0006,53.9996 L20.0006,53.9996 L14.0006,53.9996 L14.0006,50.9996 L14.0006,45.9996 Z M11.0006,26.4996 C11.0006,22.9156 13.2436,19.9996 16.0006,19.9996 C18.7576,19.9996 21.0006,22.9156 21.0006,26.4996 C21.0006,30.0836 18.7576,32.9996 16.0006,32.9996 C13.2436,32.9996 11.0006,30.0836 11.0006,26.4996 Z M25.0006,17.4996 C25.0006,13.9156 27.2436,10.9996 30.0006,10.9996 C32.7576,10.9996 35.0006,13.9156 35.0006,17.4996 C35.0006,21.0836 32.7576,23.9996 30.0006,23.9996 C27.2436,23.9996 25.0006,21.0836 25.0006,17.4996 Z M41.4916,30.2166 C40.8036,28.7866 40.6426,27.0436 41.0426,25.3116 C41.4416,23.5796 42.3456,22.0826 43.5896,21.0986 C44.5006,20.3756 45.5096,19.9996 46.5026,19.9996 C46.7946,19.9996 47.0856,20.0336 47.3716,20.0996 C50.0586,20.7166 51.5916,24.0616 50.7876,27.5556 C50.3886,29.2876 49.4836,30.7846 48.2396,31.7686 C47.0596,32.7036 45.7196,33.0576 44.4566,32.7676 C43.1976,32.4776 42.1436,31.5716 41.4916,30.2166 Z M59.8946,50.5526 C59.7246,50.2136 59.3796,49.9996 59.0006,49.9996 L48.0006,49.9996 L48.0006,44.9996 C48.0006,44.4486 47.5536,43.9996 47.0006,43.9996 L42.4276,43.9996 L45.7626,34.8296 C47.0546,34.7366 48.3356,34.2456 49.4806,33.3366 C51.0806,32.0696 52.2366,30.1756 52.7366,28.0026 C53.7876,23.4356 51.5826,19.0166 47.8196,18.1496 C45.9576,17.7216 44.0116,18.2116 42.3466,19.5296 C40.7476,20.7966 39.5916,22.6916 39.0926,24.8636 C38.5926,27.0376 38.8046,29.2456 39.6896,31.0836 C40.5586,32.8926 41.9816,34.1346 43.7076,34.6286 L40.3006,43.9996 L31.0006,43.9996 L31.0006,25.9026 C34.3866,25.3106 37.0006,21.7736 37.0006,17.4996 C37.0006,12.8126 33.8596,8.9996 30.0006,8.9996 C26.1416,8.9996 23.0006,12.8126 23.0006,17.4996 C23.0006,21.7736 25.6146,25.3106 29.0006,25.9026 L29.0006,43.9996 L19.8346,43.9996 L18.1246,34.5976 C20.9486,33.5016 23.0006,30.2876 23.0006,26.4996 C23.0006,21.8126 19.8596,17.9996 16.0006,17.9996 C12.1416,17.9996 9.0006,21.8126 9.0006,26.4996 C9.0006,31.1866 12.1416,34.9996 16.0006,34.9996 C16.0556,34.9996 16.1096,34.9926 16.1646,34.9906 L17.8026,43.9996 L13.0006,43.9996 C12.4476,43.9996 12.0006,44.4486 12.0006,44.9996 L12.0006,49.9996 L1.0006,49.9996 C0.6216,49.9996 0.2756,50.2136 0.1056,50.5526 C-0.0624,50.8916 -0.0264,51.2966 0.2006,51.5996 L2.7506,54.9996 L0.2006,58.4006 C-0.0274,58.7036 -0.0634,59.1086 0.1056,59.4476 C0.2756,59.7866 0.6216,59.9996 1.0006,59.9996 L20.0006,59.9996 C20.1176,59.9996 20.2326,59.9716 20.3436,59.9306 C20.3726,59.9196 20.3996,59.9096 20.4276,59.8966 C20.4516,59.8836 20.4786,59.8786 20.5016,59.8656 C20.5756,59.8226 20.6406,59.7696 20.6996,59.7116 C20.7016,59.7096 20.7056,59.7076 20.7076,59.7056 C20.7886,59.6246 20.8476,59.5286 20.8966,59.4246 C20.9096,59.3996 20.9196,59.3726 20.9296,59.3446 C20.9716,59.2366 21.0006,59.1206 21.0006,58.9996 L21.0006,55.9996 L39.0006,55.9996 L39.0006,58.9996 C39.0006,59.1206 39.0296,59.2366 39.0706,59.3456 C39.0806,59.3726 39.0906,59.3996 39.1026,59.4246 C39.1526,59.5286 39.2116,59.6246 39.2926,59.7056 C39.2946,59.7076 39.2976,59.7096 39.3006,59.7116 C39.3596,59.7696 39.4256,59.8226 39.4986,59.8656 C39.5226,59.8786 39.5486,59.8836 39.5736,59.8966 C39.6006,59.9096 39.6286,59.9196 39.6576,59.9306 C39.7676,59.9716 39.8836,59.9996 40.0006,59.9996 L59.0006,59.9996 C59.3796,59.9996 59.7246,59.7866 59.8946,59.4476 C60.0646,59.1086 60.0286,58.7036 59.8006,58.4006 L57.2506,54.9996 L59.8006,51.5996 C60.0276,51.2966 60.0636,50.8916 59.8946,50.5526 Z" id="Fill-1" fill="url(#linearGradient-1)"></path>
                <mask id="mask-3" fill="white">
                    <use xlink:href="#path-2"></use>
                </mask>
                <g id="Clip-4"></g>
                <polygon id="Fill-3" fill="url(#linearGradient-4)" mask="url(#mask-3)" points="29 2 31 2 31 0 29 0"></polygon>
                <polygon id="Fill-5" fill="url(#linearGradient-4)" mask="url(#mask-3)" points="15 12 17 12 17 10 15 10"></polygon>
                <polygon id="Fill-6" fill="url(#linearGradient-4)" mask="url(#mask-3)" points="43 12 45 12 45 10 43 10"></polygon>
                <polygon id="Fill-7" fill="url(#linearGradient-4)" mask="url(#mask-3)" points="38.0004 2 38.0004 4 36.0004 4 36.0004 6 38.0004 6 38.0004 8 40.0004 8 40.0004 6 42.0004 6 42.0004 4 40.0004 4 40.0004 2"></polygon>
                <polygon id="Fill-8" fill="url(#linearGradient-4)" mask="url(#mask-3)" points="20.0004 2 20.0004 4 18.0004 4 18.0004 6 20.0004 6 20.0004 8 22.0004 8 22.0004 6 24.0004 6 24.0004 4 22.0004 4 22.0004 2"></polygon>
                <polygon id="Fill-9" fill="url(#linearGradient-4)" mask="url(#mask-3)" points="5.0004 11 5.0004 13 3.0004 13 3.0004 15 5.0004 15 5.0004 17 7.0004 17 7.0004 15 9.0004 15 9.0004 13 7.0004 13 7.0004 11"></polygon>
                <polygon id="Fill-10" fill="url(#linearGradient-4)" mask="url(#mask-3)" points="53.0004 10 53.0004 12 51.0004 12 51.0004 14 53.0004 14 53.0004 16 55.0004 16 55.0004 14 57.0004 14 57.0004 12 55.0004 12 55.0004 10"></polygon>
                <polygon id="Fill-11" fill="url(#linearGradient-4)" mask="url(#mask-3)" points="0 21 2 21 2 19 0 19"></polygon>
                <polygon id="Fill-12" fill="url(#linearGradient-4)" mask="url(#mask-3)" points="58 20 60 20 60 18 58 18"></polygon>
                <polygon id="Fill-13" fill="url(#linearGradient-4)" mask="url(#mask-3)" points="7 8 9 8 9 6 7 6"></polygon>
                <polygon id="Fill-14" fill="url(#linearGradient-4)" mask="url(#mask-3)" points="50 8 52 8 52 6 50 6"></polygon>
            </g>
        </g>
    </g>
</svg>