<?xml version="1.0" encoding="UTF-8"?>
<svg width="12px" height="12px" viewBox="0 0 12 12" version="1.1" xmlns="http://www.w3.org/2000/svg" xmlns:xlink="http://www.w3.org/1999/xlink">
    <!-- Generator: sketchtool 49.3 (51167) - http://www.bohemiancoding.com/sketch -->
    <title>57DB95D5-B173-4ADF-8B22-639D0AFAC94B</title>
    <desc>Created with sketchtool.</desc>
    <defs></defs>
    <g id="MOBILE" stroke="none" stroke-width="1" fill="none" fill-rule="evenodd">
        <g id="3.2.1-New-Products-(add-to-list)" transform="translate(-148.000000, -483.000000)" fill="#FFFFFF" fill-rule="nonzero">
            <g id="Group">
                <g id="add-to-calc-btn" transform="translate(120.000000, 469.000000)">
                    <path d="M34.75,19.25 L39.25,19.25 C39.6642136,19.25 40,19.5857864 40,20 C40,20.4142136 39.6642136,20.75 39.25,20.75 L34.75,20.75 L34.75,25.25 C34.75,25.6642136 34.4142136,26 34,26 C33.5857864,26 33.25,25.6642136 33.25,25.25 L33.25,20.75 L28.75,20.75 C28.3357864,20.75 28,20.4142136 28,20 C28,19.5857864 28.3357864,19.25 28.75,19.25 L33.25,19.25 L33.25,14.75 C33.25,14.3357864 33.5857864,14 34,14 C34.4142136,14 34.75,14.3357864 34.75,14.75 L34.75,19.25 Z" id="Combined-Shape"></path>
                </g>
            </g>
        </g>
    </g>
</svg>