<?xml version="1.0" encoding="UTF-8"?>
<svg width="36px" height="44px" viewBox="0 0 36 44" version="1.1" xmlns="http://www.w3.org/2000/svg" xmlns:xlink="http://www.w3.org/1999/xlink">
    <!-- Generator: sketchtool 49.3 (51167) - http://www.bohemiancoding.com/sketch -->
    <title>A8EAF449-36E7-4F38-950A-00DA6E7FE611</title>
    <desc>Created with sketchtool.</desc>
    <defs>
        <polygon id="path-1" points="0.351652747 0.17643956 10.1987227 0.17643956 10.1987227 5.51072967 0.351652747 5.51072967"></polygon>
    </defs>
    <g id="MOBILE" stroke="none" stroke-width="1" fill="none" fill-rule="evenodd">
        <g id="1.0-Landing" transform="translate(-149.000000, -158.000000)">
            <g id="price-cart-logo" transform="translate(149.000000, 158.000000)">
                <path d="M24.3722769,8.12967033 C23.4861231,8.74602198 22.5505187,9.18158242 21.6691121,9.4316044 C21.8530681,9.75916484 21.9586945,10.1361758 21.9586945,10.5381099 C21.9586945,10.5776703 21.9547385,10.6164396 21.9527604,10.6556044 C22.9785626,10.3735385 24.052233,9.87349451 25.085156,9.15468132 C25.5278374,8.84650549 25.9321451,8.51617582 26.303222,8.1723956 C26.1283648,7.77956044 25.928189,7.39582418 25.6904308,7.02791209 C25.3007604,7.41758242 24.8596615,7.79063736 24.3722769,8.12967033" id="Fill-5" fill="#24DAC6"></path>
                <g id="Group-9" transform="translate(18.593407, 0.219165)">
                    <mask id="mask-2" fill="white">
                        <use xlink:href="#path-1"></use>
                    </mask>
                    <g id="Clip-8"></g>
                    <path d="M2.23156484,3.05798242 C2.26993846,3.03068571 2.30554286,3.00141099 2.34431209,2.97490549 C3.8036967,1.95938901 5.39956484,1.42453187 6.65877363,1.42453187 C7.54888352,1.42453187 8.27086154,1.69196044 8.65578462,2.24580659 C9.11508132,2.90567473 9.02527912,3.87174066 8.5196967,4.88844396 C8.88919121,5.08229011 9.25037802,5.29077363 9.60325714,5.51072967 C10.3398725,4.05490549 10.4241363,2.60145495 9.68119121,1.53292747 C8.31793846,-0.426105495 4.78202637,-0.242545055 1.63143297,1.9494989 C1.16936703,2.27072967 0.743696703,2.62281758 0.351652747,2.99270769 L0.800268132,2.99270769 C1.28290549,2.99270769 1.75921319,3.01763077 2.23156484,3.05798242" id="Fill-7" fill="#24DAC6" mask="url(#mask-2)"></path>
                </g>
                <path d="M19.6922374,8.27204835 C19.0766769,8.27204835 18.5188747,8.51850989 18.1110066,8.91688352 C17.7980835,9.22189451 17.5733802,9.61631209 17.477644,10.059389 C17.4444132,10.2140703 17.4258198,10.3738945 17.4258198,10.5384659 C17.4258198,11.7901582 18.4405451,12.8044879 19.6922374,12.8044879 C20.9043692,12.8044879 21.8914022,11.8522681 21.9531165,10.6555648 C21.9546989,10.6164 21.9586549,10.5780264 21.9586549,10.5384659 C21.9586549,10.1361363 21.852633,9.75912527 21.6690725,9.43156484 C21.2813802,8.74004835 20.5416,8.27204835 19.6922374,8.27204835 Z M28.1965451,5.72989451 C27.7724571,6.56778462 27.131578,7.40527912 26.3031824,8.17275165 C27.6688088,11.2505538 27.1003253,14.9862462 24.5803253,17.507433 L12.2271824,29.861367 C11.5202374,30.5675209 10.3682374,30.5675209 9.6608967,29.861367 C9.65773187,29.8578066 9.65496264,29.8566198 9.65338022,29.8538505 L0.376852747,20.5785099 C0.374874725,20.5753451 0.373292308,20.5737626 0.370523077,20.571389 C0.208720879,20.4091912 0.0876659341,20.2220703 0.000237362637,20.0242681 L0.000237362637,43.7356088 L19.567622,43.7356088 L19.567622,36.0359604 C28.5984791,36.0359604 35.9503912,28.6262901 35.9503912,19.6531912 C35.9503912,13.7531473 32.8413363,8.62809231 28.1965451,5.72989451 Z M12.7244571,5.65077363 C14.2894681,4.08536703 16.3244571,3.27833407 18.379622,3.21187253 L0.000237362637,3.21187253 L0.000237362637,18.5522242 C0.0876659341,18.3540264 0.208720879,18.1669055 0.370523077,18.0051033 L12.7244571,5.65077363 Z M20.6041055,3.44013626 C20.0577758,3.31116923 19.5023473,3.23244396 18.9433582,3.21305934 C18.9441495,3.21266374 18.9445451,3.21226813 18.9449407,3.21187253 L19.393556,3.21187253 C19.8761934,3.21187253 20.3525011,3.2367956 20.8248527,3.27714725 C23.0762374,3.46901538 25.2034022,4.10752088 27.1129846,5.10760879 C26.7937319,5.74888352 26.3091165,6.40954286 25.6903912,7.02787253 C25.3746989,6.54048791 25.0071824,6.07723516 24.5803253,5.65077363 C23.4453363,4.51538901 22.0615121,3.78431209 20.6041055,3.44013626 Z" id="Fill-10" fill="#24DAC6"></path>
                <path d="M28.1965846,5.72997363 C27.8437055,5.50962198 27.4825187,5.30153407 27.1130242,5.10768791 C26.794167,5.74896264 26.309156,6.40962198 25.6904308,7.02795165 C25.928189,7.39546813 26.1283648,7.7796 26.303222,8.17243516 C27.1316176,7.40535824 27.7724967,6.56786374 28.1965846,5.72997363" id="Fill-12" fill="#24DAC6"></path>
            </g>
        </g>
    </g>
</svg>