<?xml version="1.0" encoding="UTF-8"?>
<svg width="12px" height="12px" viewBox="0 0 12 12" version="1.1" xmlns="http://www.w3.org/2000/svg" xmlns:xlink="http://www.w3.org/1999/xlink">
    <!-- Generator: sketchtool 49.3 (51167) - http://www.bohemiancoding.com/sketch -->
    <title>7DFCDCA7-7652-49ED-90E3-8AA9B6A651B6</title>
    <desc>Created with sketchtool.</desc>
    <defs></defs>
    <g id="MOBILE" stroke="none" stroke-width="1" fill="none" fill-rule="evenodd">
        <g id="4.0-Product-Page" transform="translate(-92.000000, -539.000000)" fill="#FFFFFF" fill-rule="nonzero">
            <path d="M98.75,544.25 L103.25,544.25 C103.664214,544.25 104,544.585786 104,545 C104,545.414214 103.664214,545.75 103.25,545.75 L98.75,545.75 L98.75,550.25 C98.75,550.664214 98.4142136,551 98,551 C97.5857864,551 97.25,550.664214 97.25,550.25 L97.25,545.75 L92.75,545.75 C92.3357864,545.75 92,545.414214 92,545 C92,544.585786 92.3357864,544.25 92.75,544.25 L97.25,544.25 L97.25,539.75 C97.25,539.335786 97.5857864,539 98,539 C98.4142136,539 98.75,539.335786 98.75,539.75 L98.75,544.25 Z" id="Combined-Shape"></path>
        </g>
    </g>
</svg>