<?xml version="1.0" encoding="UTF-8"?>
<svg width="14px" height="14px" viewBox="0 0 14 14" version="1.1" xmlns="http://www.w3.org/2000/svg" xmlns:xlink="http://www.w3.org/1999/xlink">
    <!-- Generator: sketchtool 49.3 (51167) - http://www.bohemiancoding.com/sketch -->
    <title>9254828B-87DF-4055-BEC2-7C210C489F79</title>
    <desc>Created with sketchtool.</desc>
    <defs>
        <path d="M10.4506835,9.50787441 L13.4714045,12.5285955 C13.731754,12.788945 13.731754,13.211055 13.4714045,13.4714045 C13.211055,13.731754 12.788945,13.731754 12.5285955,13.4714045 L9.50787441,10.4506835 C8.54301263,11.2121976 7.32457979,11.6666667 6,11.6666667 C2.87038642,11.6666667 0.333333333,9.12961358 0.333333333,6 C0.333333333,2.87038642 2.87038642,0.333333333 6,0.333333333 C9.12961358,0.333333333 11.6666667,2.87038642 11.6666667,6 C11.6666667,7.32457979 11.2121976,8.54301263 10.4506835,9.50787441 Z M9.10650596,9.02116223 C9.86574475,8.24061157 10.3333333,7.17491137 10.3333333,6 C10.3333333,3.60676608 8.39323392,1.66666667 6,1.66666667 C3.60676608,1.66666667 1.66666667,3.60676608 1.66666667,6 C1.66666667,8.39323392 3.60676608,10.3333333 6,10.3333333 C7.17491137,10.3333333 8.24061157,9.86574475 9.02116223,9.10650596 C9.03395645,9.09118955 9.04754531,9.07631232 9.06192881,9.06192881 C9.07631232,9.04754531 9.09118955,9.03395645 9.10650596,9.02116223 Z" id="path-1"></path>
    </defs>
    <g id="MOBILE" stroke="none" stroke-width="1" fill="none" fill-rule="evenodd">
        <g id="4.0-Product-Page" transform="translate(-241.000000, -23.000000)">
            <g id="Header">
                <g id="search" transform="translate(241.000000, 23.000000)">
                    <mask id="mask-2" fill="white">
                        <use xlink:href="#path-1"></use>
                    </mask>
                    <use id="Combined-Shape" fill="#24DAC6" fill-rule="nonzero" xlink:href="#path-1"></use>
                </g>
            </g>
        </g>
    </g>
</svg>