<?xml version="1.0" encoding="UTF-8"?>
<svg width="16px" height="15px" viewBox="0 0 16 15" version="1.1" xmlns="http://www.w3.org/2000/svg" xmlns:xlink="http://www.w3.org/1999/xlink">
    <!-- Generator: sketchtool 51.1 (57501) - http://www.bohemiancoding.com/sketch -->
    <title>C2441A51-CDEF-48B5-99C6-3212D118EEA7</title>
    <desc>Created with sketchtool.</desc>
    <defs></defs>
    <g id="Page-1" stroke="none" stroke-width="1" fill="none" fill-rule="evenodd">
        <g id="Updated-share-popup" transform="translate(-274.000000, -66.000000)" fill="#525764" fill-rule="nonzero">
            <g id="Modal" transform="translate(20.000000, 56.000000)">
                <g id="Close" transform="translate(254.000000, 10.000000)">
                    <path d="M9.31918691,7.48861538 L15.334875,1.47292725 C15.6481699,1.16016707 15.6481699,0.651731291 15.334875,0.33897111 C15.0215802,0.0256762966 14.5142137,0.0256762966 14.2009189,0.33897111 L8.18523077,6.35465924 L2.16954264,0.33897111 C1.85624782,0.0256762966 1.34888131,0.0256762966 1.03558649,0.33897111 C0.722291681,0.651731291 0.722291681,1.16016707 1.03558649,1.47292725 L7.05127463,7.48861538 L1.03558649,13.5043035 C0.722291681,13.8170637 0.722291681,14.3254995 1.03558649,14.6382597 C1.1922339,14.7949071 1.39753289,14.8729635 1.60283188,14.8729635 C1.80813087,14.8729635 2.01289523,14.7949071 2.16954264,14.6382597 L8.18523077,8.62257153 L14.2009189,14.6382597 C14.3575663,14.7949071 14.5628653,14.8729635 14.7681643,14.8729635 C14.9734633,14.8729635 15.1782276,14.7949071 15.334875,14.6382597 C15.6481699,14.3254995 15.6481699,13.8170637 15.334875,13.5043035 L9.31918691,7.48861538" id="4A"></path>
                </g>
            </g>
        </g>
    </g>
</svg>